# xmcd
#
# Track frame offsets:
#	150
#	12822
#	27341
#	42926
#	55662
#	70440
#	82228
#	100352
#	114113
#	127096
#	144538
#	155501
#	170853
#	185736
#	199185
#
# Disc length: 2885 seconds
#
# Revision: 13
# Processed by: cddbd v1.5.2PL0 Copyright (c) Steve Scherf et al.
# Submitted via: EasyCDDAExtractor 12.0.1.1
#
DISCID=da0b430f
DTITLE=Johnny Cash - Unearthed Volume 3 (Redemption Songs)
DYEAR=2003
DGENRE=Country
TTITLE0=A Singer Of Songs
TTITLE1=The L and N Don't Stop Here Anymore
TTITLE2=Redemption Song (Feat. Joe Strummer)
TTITLE3=Father And Son (Feat. Fiona Apple)
TTITLE4=Chattanooga Sugar Babe
TTITLE5=He Stopped Loving Her Today
TTITLE6=Hard Times
TTITLE7=Wichita Lineman
TTITLE8=Cindy (Feat. Nick Cave)
TTITLE9=Big Iron
TTITLE10=Salty Dog
TTITLE11=Gentle On My Mind (Feat. Glen Campbell)
TTITLE12=You Are My Sunshine
TTITLE13=You'll Never Walk Alone
TTITLE14=The Man Comes Around (Early Take)
EXTD=Limited Edition Deluxe Packaging With 5 Discs.\\r\n06024 9861335 1 YEAR: 
EXTD=2003
EXTT0=
EXTT1=
EXTT2=
EXTT3=
EXTT4=
EXTT5=
EXTT6=
EXTT7=
EXTT8=
EXTT9=
EXTT10=
EXTT11=
EXTT12=
EXTT13=
EXTT14=
PLAYORDER=
